<svg width="593" height="96" viewBox="0 0 593 96" fill="none" xmlns="http://www.w3.org/2000/svg">
<path d="M540.498 72.2124C535.172 72.2124 530.376 71.8245 526.108 71.0486C521.876 70.2727 518.208 69.0912 515.104 67.5041C512.036 65.8817 509.691 63.8361 508.068 61.3673C506.481 58.8985 505.688 55.9712 505.688 52.5854C505.688 49.3054 506.499 46.4839 508.121 44.1209C509.743 41.7579 512.124 39.8181 515.263 38.3015C518.402 36.785 522.211 35.6564 526.69 34.9157C531.169 34.1751 536.23 33.8048 541.873 33.8048H571.446V32.0061C571.446 29.8547 570.547 28.0383 568.748 26.557C566.949 25.0758 564.41 23.9472 561.13 23.1712C557.85 22.3601 553.97 21.9545 549.491 21.9545C546 21.9545 542.702 22.2895 539.598 22.9596C536.53 23.5945 533.885 24.5291 531.663 25.7635C529.441 26.9979 527.836 28.4968 526.849 30.2603L506.957 21.5312C508.262 19.5562 510.361 17.7751 513.253 16.188C516.145 14.5657 519.53 13.2078 523.41 12.1145C527.325 11.0212 531.504 10.1747 535.948 9.57514C540.392 8.97557 544.836 8.67578 549.28 8.67578C558.52 8.67578 566.35 9.64567 572.769 11.5855C579.188 13.49 584.09 16.3115 587.476 20.05C590.862 23.7532 592.554 28.3734 592.554 33.9106V71.4189H573.985L572.504 61.4731C571.587 62.778 570.176 64.0654 568.272 65.335C566.367 66.6047 564.04 67.7686 561.289 68.8266C558.538 69.8494 555.416 70.6782 551.925 71.3131C548.433 71.9127 544.624 72.2124 540.498 72.2124ZM544.148 59.8331C548.38 59.8331 552.313 59.3922 555.945 58.5105C559.578 57.6288 562.682 56.4297 565.256 54.9131C567.866 53.3966 569.771 51.7918 570.97 50.0989V44.3854H543.936C541.362 44.3854 539.016 44.5265 536.9 44.8086C534.819 45.0555 533.021 45.4611 531.504 46.0254C530.023 46.5544 528.877 47.3303 528.066 48.3531C527.254 49.3407 526.849 50.5751 526.849 52.0563C526.849 53.5376 527.272 54.772 528.118 55.7596C528.965 56.7471 530.164 57.5406 531.716 58.1402C533.303 58.7045 535.155 59.1277 537.271 59.4099C539.387 59.692 541.679 59.8331 544.148 59.8331Z" fill="#F8FAFC"/>
<path d="M471.49 39.9951C471.49 33.682 469.886 29.2205 466.676 26.6106C463.467 24.0007 459.181 22.6957 453.821 22.6957C447.613 22.6957 442.588 24.3534 438.743 27.6686C434.934 30.9486 433.03 34.934 433.03 39.6247L424.988 33.0119C424.988 27.4747 428.18 22.0609 434.564 16.7706C440.983 11.445 449.765 8.78223 460.91 8.78223C471.49 8.78223 479.426 11.2158 484.716 16.0829C490.006 20.9147 492.652 28.8854 492.652 39.9951H471.49ZM412.08 71.4195V9.31126H428.692L433.188 22.4841V71.4195H412.08Z" fill="#F8FAFC"/>
<path d="M353.569 72.1068C340.096 72.1068 329.128 69.4793 320.663 64.2242C312.058 58.8987 307.755 50.9808 307.755 40.4707C307.755 30.0312 312.075 22.1133 320.716 16.7172C329.322 11.3211 340.043 8.62305 352.881 8.62305C366.354 8.62305 377.234 11.4093 385.522 16.9817C393.67 22.6247 397.743 30.4368 397.743 40.4178C397.743 42.6045 397.531 44.5266 397.108 46.1843H325.742V34.0165H376.423C375.682 30.137 373.69 27.1391 370.445 25.023C366.072 22.3779 360.235 21.0553 352.934 21.0553C345.81 21.0553 339.814 22.6071 334.947 25.7108C330.115 28.7439 327.699 33.6991 327.699 40.5765C327.699 47.3129 330.115 52.1447 334.947 55.072C339.744 58.0698 345.951 59.5688 353.569 59.5688V72.1068ZM353.569 59.5688C358.013 59.5688 361.734 59.2337 364.732 58.5636C367.765 57.8582 370.198 56.9236 372.032 55.7597C373.796 54.5253 375.347 53.0617 376.688 51.3688L394.304 59.463C392.929 61.8965 390.178 64.1008 386.052 66.0758C381.925 68.1214 377.411 69.6204 372.508 70.5726C367.571 71.5954 361.258 72.1068 353.569 72.1068V59.5688Z" fill="#F8FAFC"/>
<path d="M208.838 95.0664V9.31045H225.449L229.946 20.8433V95.0664H208.838ZM259.995 71.8948C249.238 71.8948 240.068 69.7435 232.486 65.4407C224.903 61.1379 221.111 57.4347 221.111 54.331L229.946 44.3852C229.946 47.6652 232.327 50.7689 237.088 53.6962C241.849 56.5882 247.334 58.0342 253.541 58.0342C260.172 58.0342 265.427 56.5529 269.306 53.5904C273.186 50.6278 275.126 46.2016 275.126 40.3117C275.126 34.4218 273.186 29.9956 269.306 27.033C265.427 24.0704 260.172 22.5891 253.541 22.5891C247.334 22.5891 241.849 24.0352 237.088 26.9272C232.327 29.8192 229.946 32.8876 229.946 36.1323L221.111 26.2924C221.111 23.1887 224.903 19.4855 232.486 15.1827C240.068 10.8799 249.238 8.72852 259.995 8.72852C270.717 8.72852 279.499 11.3384 286.341 16.5582C293.218 21.7427 296.657 29.6253 296.657 40.2059C296.657 50.7865 293.218 58.722 286.341 64.0123C279.499 69.2673 270.717 71.8948 259.995 71.8948Z" fill="#F8FAFC"/>
<path d="M149.285 71.8954C136.482 71.8954 125.69 69.2326 116.908 63.907C108.126 58.5461 103.735 50.5578 103.735 39.9419C103.735 29.326 108.126 21.4434 116.908 16.2942C125.69 11.1449 136.482 8.57031 149.285 8.57031C162.158 8.57031 172.968 11.1449 181.715 16.2942C190.496 21.4434 194.887 29.326 194.887 39.9419C194.887 50.5578 190.496 58.5461 181.715 63.907C172.968 69.2326 162.158 71.8954 149.285 71.8954ZM149.285 58.2993C156.127 58.2993 161.911 56.8532 166.637 53.9612C171.398 51.0692 173.779 46.4666 173.779 40.1535C173.779 33.7698 171.398 29.1673 166.637 26.3458C161.911 23.5243 156.127 22.1135 149.285 22.1135C142.513 22.1135 136.747 23.5243 131.986 26.3458C127.224 29.1673 124.844 33.7698 124.844 40.1535C124.844 46.4666 127.224 51.0692 131.986 53.9612C136.747 56.8532 142.513 58.2993 149.285 58.2993Z" fill="#F8FAFC"/>
<path d="M0 71.4192V0H21.3729V29.3083H67.3986V0H88.7714V71.4192H67.3986V43.2218H21.3729V71.4192H0Z" fill="#F8FAFC"/>
</svg>
