<svg width="161" height="237" viewBox="0 0 161 237" fill="none" xmlns="http://www.w3.org/2000/svg">
<g id="Group 2364">
<path id="Vector" d="M48.6187 151.086C49.0202 150.953 49.4245 150.826 49.8318 150.702C49.8699 150.69 49.908 150.678 49.9461 150.669C55.452 148.984 61.1513 147.748 67 147V237H37.1733C21.7925 237 9.13105 228.178 7.52529 216.851C7.51357 216.771 7.50185 216.689 7.49306 216.606C7.47255 216.452 7.45204 216.298 7.43738 216.145C4.02075 187.777 20.89 160.177 48.6187 151.086Z" fill="url(#paint0_radial_981_116)"/>
<path id="Vector_2" d="M112.381 151.086C111.98 150.953 111.575 150.826 111.168 150.702C111.13 150.69 111.092 150.678 111.054 150.669C105.548 148.984 99.8487 147.748 94 147V237H123.827C139.207 237 151.869 228.178 153.475 216.851C153.486 216.771 153.498 216.689 153.507 216.606C153.527 216.452 153.548 216.298 153.563 216.145C156.979 187.777 140.11 160.177 112.381 151.086Z" fill="url(#paint1_radial_981_116)"/>
<path id="Vector_3" d="M48.6187 85.914C49.0202 86.0471 49.4245 86.1742 49.8318 86.2984C49.8699 86.3102 49.908 86.3221 49.9461 86.3309C55.452 88.0162 61.1513 89.252 67 90V0H37.1733C21.7925 0 9.13105 8.82232 7.52529 20.1488C7.51357 20.2286 7.50185 20.3114 7.49306 20.3942C7.47255 20.5479 7.45204 20.7017 7.43738 20.8554C4.02075 49.2234 20.89 76.8227 48.6187 85.914Z" fill="url(#paint2_radial_981_116)"/>
<path id="Vector_4" d="M112.381 85.914C111.98 86.0471 111.575 86.1742 111.168 86.2984C111.13 86.3102 111.092 86.3221 111.054 86.3309C105.548 88.0162 99.8487 89.252 94 90V0H123.827C139.207 0 151.869 8.82232 153.475 20.1488C153.486 20.2286 153.498 20.3114 153.507 20.3942C153.527 20.5479 153.548 20.7017 153.563 20.8554C156.979 49.2234 140.11 76.8227 112.381 85.914Z" fill="url(#paint3_radial_981_116)"/>
<path id="Vector_5" d="M158.193 57.1478C157.074 45.0004 155.628 32.9501 153.857 21C153.86 21.0147 153.86 21.0294 153.86 21.0442C153.88 21.1973 153.901 21.3504 153.916 21.5034C157.358 49.7522 140.364 77.2354 112.432 86.2885C112.028 86.421 111.62 86.5476 111.21 86.6713C111.172 86.683 111.133 86.6948 111.095 86.7037C105.549 88.3818 99.8074 89.6124 93.9157 90.3573C89.5205 90.9167 85.0457 91.2022 80.5 91.2022C75.9543 91.2022 71.4795 90.9167 67.0843 90.3573C61.1926 89.6124 55.4515 88.3818 49.9052 86.7037C49.8668 86.6948 49.8284 86.683 49.79 86.6713C49.3797 86.5476 48.9724 86.421 48.568 86.2885C20.6357 77.2354 3.64245 49.7522 7.08419 21.5034C7.09895 21.3504 7.11961 21.1973 7.14027 21.0442C7.14027 21.0294 7.14027 21.0147 7.14322 21C5.37218 32.9501 3.92582 45.0004 2.80711 57.1478C0.950462 77.3443 0 97.8029 0 118.482V118.518C0 139.197 0.950462 159.656 2.80711 179.852C3.92582 192 5.37218 204.05 7.14322 216C7.14027 215.985 7.14027 215.971 7.14027 215.956C7.11961 215.803 7.09895 215.65 7.08419 215.497C3.64245 187.248 20.6357 159.765 48.568 150.712C48.9724 150.579 49.3797 150.452 49.79 150.329C49.8284 150.317 49.8668 150.305 49.9052 150.296C55.4515 148.618 61.1926 147.388 67.0843 146.643C71.4795 146.083 75.9543 145.798 80.5 145.798C85.0457 145.798 89.5205 146.083 93.9157 146.643C99.8074 147.388 105.549 148.618 111.095 150.296C111.133 150.305 111.172 150.317 111.21 150.329C111.62 150.452 112.028 150.579 112.432 150.712C140.364 159.765 157.358 187.248 153.916 215.497C153.901 215.65 153.88 215.803 153.86 215.956C153.86 215.971 153.86 215.985 153.857 216C155.628 204.05 157.074 192 158.193 179.852C160.05 159.656 161 139.197 161 118.518V118.482C161 97.8029 160.05 77.3443 158.193 57.1478Z" fill="#FFA800"/>
</g>
<defs>
<radialGradient id="paint0_radial_981_116" cx="0" cy="0" r="1" gradientUnits="userSpaceOnUse" gradientTransform="translate(26.0352 147.311) rotate(65.483) scale(98.149 256.298)">
<stop stop-color="#481D05"/>
<stop offset="0.517739" stop-color="#A45207"/>
<stop offset="1" stop-color="#CB9301"/>
</radialGradient>
<radialGradient id="paint1_radial_981_116" cx="0" cy="0" r="1" gradientUnits="userSpaceOnUse" gradientTransform="translate(134.965 147.311) rotate(114.517) scale(98.149 256.298)">
<stop stop-color="#481D05"/>
<stop offset="0.517739" stop-color="#A45207"/>
<stop offset="1" stop-color="#CB9301"/>
</radialGradient>
<radialGradient id="paint2_radial_981_116" cx="0" cy="0" r="1" gradientUnits="userSpaceOnUse" gradientTransform="translate(26.0352 89.6889) rotate(-65.483) scale(98.149 256.298)">
<stop stop-color="#481D05"/>
<stop offset="0.517739" stop-color="#A45207"/>
<stop offset="1" stop-color="#CB9301"/>
</radialGradient>
<radialGradient id="paint3_radial_981_116" cx="0" cy="0" r="1" gradientUnits="userSpaceOnUse" gradientTransform="translate(134.965 89.6889) rotate(-114.517) scale(98.149 256.298)">
<stop stop-color="#481D05"/>
<stop offset="0.517739" stop-color="#A45207"/>
<stop offset="1" stop-color="#CB9301"/>
</radialGradient>
</defs>
</svg>
